<svg width="25" height="25" viewBox="0 0 25 25" fill="none" xmlns="http://www.w3.org/2000/svg">
<circle cx="12.5" cy="12.5" r="12.5" fill="#2177B7"/>
<path d="M9.07667 6.59199C9.52467 6.50666 10.0153 6.44266 10.5487 6.39999C11.0927 6.34666 11.6313 6.31999 12.1647 6.31999C12.7193 6.31999 13.274 6.36799 13.8287 6.46399C14.394 6.54933 14.9007 6.73066 15.3487 7.00799C15.7967 7.27466 16.1593 7.65333 16.4367 8.14399C16.7247 8.62399 16.8687 9.25333 16.8687 10.032C16.8687 10.736 16.746 11.3333 16.5007 11.824C16.2553 12.304 15.93 12.6987 15.5247 13.008C15.1193 13.3173 14.6553 13.5413 14.1327 13.68C13.6207 13.8187 13.0873 13.888 12.5327 13.888C12.4793 13.888 12.394 13.888 12.2767 13.888C12.1593 13.888 12.0367 13.888 11.9087 13.888C11.7807 13.8773 11.6527 13.8667 11.5247 13.856C11.4073 13.8453 11.322 13.8347 11.2687 13.824V17.68H9.07667V6.59199ZM12.3407 8.20799C12.1273 8.20799 11.9247 8.21866 11.7327 8.23999C11.5407 8.25066 11.386 8.26666 11.2687 8.28799V11.92C11.3113 11.9307 11.3753 11.9413 11.4607 11.952C11.546 11.9627 11.6367 11.9733 11.7327 11.984C11.8287 11.984 11.9193 11.984 12.0047 11.984C12.1007 11.984 12.17 11.984 12.2127 11.984C12.5007 11.984 12.7833 11.9573 13.0607 11.904C13.3487 11.8507 13.6047 11.7547 13.8287 11.616C14.0527 11.4667 14.2287 11.264 14.3567 11.008C14.4953 10.752 14.5647 10.416 14.5647 9.99999C14.5647 9.64799 14.5007 9.35999 14.3727 9.13599C14.2447 8.90133 14.074 8.71466 13.8607 8.57599C13.658 8.43733 13.4233 8.34133 13.1567 8.28799C12.89 8.23466 12.618 8.20799 12.3407 8.20799Z" fill="#FEFEFE"/>
</svg>
